<?xml version="1.0" encoding="UTF-8" standalone="no"?>
<svg width="14px" height="14px" viewBox="0 0 14 14" version="1.1" xmlns="http://www.w3.org/2000/svg" xmlns:xlink="http://www.w3.org/1999/xlink" xmlns:sketch="http://www.bohemiancoding.com/sketch/ns">
    <!-- Generator: Sketch 3.3.2 (12043) - http://www.bohemiancoding.com/sketch -->
    <title>hub</title>
    <desc>Created with Sketch.</desc>
    <defs></defs>
    <g id="Page-1" stroke="none" stroke-width="1" fill="none" fill-rule="evenodd" sketch:type="MSPage">
        <g id="mobile---TN" sketch:type="MSArtboardGroup" transform="translate(-11.000000, -426.000000)" stroke="#C2831A" fill="#C2831A">
            <g id="CARDS-Copy" sketch:type="MSLayerGroup" transform="translate(0.000000, 324.000000)">
                <g id="time" transform="translate(11.000000, 15.000000)" sketch:type="MSShapeGroup">
                    <g id="hub" transform="translate(0.000000, 88.000000)">
                        <circle id="Oval-8" cx="7" cy="6" r="1.84210526"></circle>
                        <circle id="Oval-8-Copy" cx="7" cy="1.10526316" r="1.10526316"></circle>
                        <circle id="Oval-8-Copy-4" cx="7" cy="10.8947368" r="1.10526316"></circle>
                        <path d="M7,6.73684211 L7,1.52658161" id="Line" stroke-linecap="square"></path>
                        <path d="M7,11.1578947 L7,5.94763425" id="Line-Copy" stroke-linecap="square"></path>
                        <g id="Group" transform="translate(0.736842, 3.421053)">
                            <ellipse id="Oval-8-Copy-2" cx="11.4210526" cy="1.10526316" rx="1.10526316" ry="1.10526316"></ellipse>
                            <path d="M10.7695156,1.3417378 L5.87347224,3.12375184" id="Line-Copy-7" stroke-linecap="square"></path>
                            <ellipse id="Oval-8-Copy-3" transform="translate(1.105263, 4.789474) scale(-1, -1) translate(-1.105263, -4.789474) " cx="1.10526316" cy="4.78947368" rx="1.10526316" ry="1.10526316"></ellipse>
                            <path d="M6.34846295,2.81542201 L1.45241961,4.59743605" id="Line-Copy-8" stroke-linecap="square" transform="translate(3.900441, 3.706429) scale(-1, -1) translate(-3.900441, -3.706429) "></path>
                        </g>
                        <g id="Group-Copy-2" transform="translate(7.242540, 6.374650) scale(1, -1) rotate(-14.000000) translate(-7.242540, -6.374650) translate(0.742540, 3.374650)">
                            <ellipse id="Oval-8-Copy-2" cx="11.4210526" cy="1.10526316" rx="1.10526316" ry="1.10526316"></ellipse>
                            <path d="M10.7695156,1.3417378 L5.87347224,3.12375184" id="Line-Copy-7" stroke-linecap="square"></path>
                            <ellipse id="Oval-8-Copy-3" transform="translate(1.105263, 4.789474) scale(-1, -1) translate(-1.105263, -4.789474) " cx="1.10526316" cy="4.78947368" rx="1.10526316" ry="1.10526316"></ellipse>
                            <path d="M6.34846295,2.81542201 L1.45241961,4.59743605" id="Line-Copy-8" stroke-linecap="square" transform="translate(3.900441, 3.706429) scale(-1, -1) translate(-3.900441, -3.706429) "></path>
                        </g>
                    </g>
                </g>
            </g>
        </g>
    </g>
</svg>